<svg width="48" height="48" viewBox="0 0 48 48" fill="none" xmlns="http://www.w3.org/2000/svg">
<path d="M14 26C14 30.4183 17.5817 34 22 34H34C38.4183 34 42 30.4183 42 26V22C42 17.5817 38.4183 14 34 14H14V26Z" stroke="#F97316" stroke-width="2" stroke-linecap="round" stroke-linejoin="round"/>
<path d="M14 22H6C4.89543 22 4 21.1046 4 20V18C4 16.8954 4.89543 16 6 16H14V22Z" stroke="#F97316" stroke-width="2" stroke-linecap="round" stroke-linejoin="round"/>
<path d="M22 10C22 8.89543 22.8954 8 24 8C25.1046 8 26 8.89543 26 10V14H22V10Z" stroke="#F97316" stroke-width="2" stroke-linecap="round" stroke-linejoin="round"/>
<path d="M28 10C28 8.89543 28.8954 8 30 8C31.1046 8 32 8.89543 32 10V14H28V10Z" stroke="#F9731g" stroke-width="2" stroke-linecap="round" stroke-linejoin="round"/>
</svg>
